# File created by Blade
# Date/Time:  Fri Jan 16 17:52:57 2015
#---------------------------------------------------------
:version 1.10
:name HOM
:units
  mass 1.0
  length 1.000000
  angle deg
:documentation
     Acclaim Skeleton File
:root
   axis xyz
   order TX TY TZ RX RY RZ
   position 0.000000 0.000000 0.000000
   orientation 0 0 0
:bonedata
   begin
      id 1
      name Spine_dum
      direction 0.000000 1.000000 0.000000
      length 7.170412
      axis 0.0 0.0 0.0 xyz
   end
   begin
      id 2
      name LeftUpLeg_dum
      direction 1.000000 0.000000 0.000000
      length 4.318350
      axis 0.0 0.0 0.0 xyz
   end
   begin
      id 3
      name RightUpLeg_dum
      direction -1.000000 0.000000 0.000000
      length 4.318350
      axis 0.0 0.0 0.0 xyz
   end
   begin
      id 4
      name Spine
      direction 0.000000 1.000000 0.000000
      length 0.000000
      axis 0.0 0.0 0.0 xyz
      dof rx ry rz
   end
   begin
      id 5
      name Spine_dum1
      direction 0.000000 1.000000 0.000000
      length 14.276153
      axis 0.0 0.0 0.0 xyz
   end
   begin
      id 6
      name Spine_dum2
      direction 0.000000 1.000000 0.000000
      length 10.718243
      axis 0.0 0.0 0.0 xyz
   end
   begin
      id 7
      name Spine_dum3
      direction 0.000000 1.000000 0.000000
      length 10.718243
      axis 0.0 0.0 0.0 xyz
   end
   begin
      id 8
      name Head
      direction 0.000000 1.000000 0.000000
      length 4.527550
      axis 0.0 0.0 0.0 xyz
      dof rx ry rz
   end
   begin
      id 9
      name LeftShoulder
      direction 1.000000 0.000000 0.000000
      length 7.058872
      axis 0.0 0.0 -90.0 xyz
      dof rx ry rz
   end
   begin
      id 10
      name LeftArm
      direction 1.000000 0.000000 0.000000
      length 10.955525
      axis 0.0 0.0 -90.0 xyz
      dof rx ry rz
   end
   begin
      id 11
      name LeftForeArm
      direction 1.000000 0.000000 0.000000
      length 8.193716
      axis 0.0 0.0 -90.0 xyz
      dof ry rz rx
   end
   begin
      id 12
      name LeftHand
      direction 0.000000 0.000000 0.000000
      length 0.000000
      axis 0.0 0.0 -90.0 xyz
      dof rx ry rz
   end
   begin
      id 13
      name LeftHand_dum1
      direction 0.000000 0.000000 0.000000
      length 0.000000
      axis 0.0 0.0 -90.0 xyz
   end
   begin
      id 14
      name LeftHand_dum2
      direction 1.000000 0.000000 0.000000
      length 3.937000
      axis 0.0 0.0 -90.0 xyz
   end
   begin
      id 15
      name LeftHandThumb1
      direction 0.000000 0.000000 1.000000
      length 3.937000
      axis 0.0 0.0 -90.0 xyz
      dof rx rz ry
   end
   begin
      id 16
      name RightShoulder
      direction -1.000000 0.000000 0.000000
      length 7.058872
      axis 0.0 0.0 90.0 xyz
      dof rx ry rz
   end
   begin
      id 17
      name RightArm
      direction -1.000000 0.000000 0.000000
      length 10.955525
      axis 0.0 0.0 90.0 xyz
      dof rx ry rz
   end
   begin
      id 18
      name RightForeArm
      direction -1.000000 0.000000 0.000000
      length 8.193716
      axis 0.0 0.0 90.0 xyz
      dof ry rz rx
   end
   begin
      id 19
      name RightHand
      direction 0.000000 0.000000 0.000000
      length 0.000000
      axis 0.0 0.0 90.0 xyz
      dof rx ry rz
   end
   begin
      id 20
      name RightHand_dum1
      direction 0.000000 0.000000 0.000000
      length 0.000000
      axis 0.0 0.0 90.0 xyz
   end
   begin
      id 21
      name RightHand_dum2
      direction -1.000000 0.000000 0.000000
      length 3.937000
      axis 0.0 0.0 90.0 xyz
   end
   begin
      id 22
      name RightHandThumb1
      direction 0.000000 0.000000 1.000000
      length 3.937000
      axis 0.0 0.0 90.0 xyz
      dof rx rz ry
   end
   begin
      id 23
      name LeftUpLeg
      direction 0.000000 -1.000000 0.000000
      length 17.323638
      axis 0.0 0.0 0.0 xyz
      dof rx ry rz
   end
   begin
      id 24
      name LeftLeg
      direction 0.000000 -1.000000 0.000000
      length 16.270368
      axis 0.0 0.0 0.0 xyz
      dof rx ry rz
   end
   begin
      id 25
      name LeftFoot
      direction 0.000000 -0.258819 0.965926
      length 4.922846
      axis 15.0 0.0 0.0 xyz
      dof rx ry rz
   end
   begin
      id 26
      name LeftToeBase
      direction 0.000000 0.000000 1.000000
      length 2.952750
      axis 0.0 0.0 0.0 xyz
      dof rx ry rz
   end
   begin
      id 27
      name RightUpLeg
      direction 0.000000 -1.000000 0.000000
      length 17.323638
      axis 0.0 0.0 0.0 xyz
      dof rx ry rz
   end
   begin
      id 28
      name RightLeg
      direction 0.000000 -1.000000 0.000000
      length 16.270368
      axis 0.0 0.0 0.0 xyz
      dof rx ry rz
   end
   begin
      id 29
      name RightFoot
      direction 0.000000 -0.258819 0.965926
      length 4.922846
      axis 15.0 0.0 0.0 xyz
      dof rx ry rz
   end
   begin
      id 30
      name RightToeBase
      direction 0.000000 0.000000 1.000000
      length 2.952750
      axis 0.0 0.0 0.0 xyz
      dof rx ry rz
   end
:hierarchy
   begin
      root Spine_dum LeftUpLeg_dum RightUpLeg_dum
      Spine_dum Spine
      LeftUpLeg_dum LeftUpLeg
      RightUpLeg_dum RightUpLeg
      Spine Spine_dum1 Spine_dum2 Spine_dum3
      Spine_dum1 Head
      Spine_dum2 LeftShoulder
      Spine_dum3 RightShoulder
      LeftShoulder LeftArm
      LeftArm LeftForeArm
      LeftForeArm LeftHand
      LeftHand LeftHand_dum1 LeftHand_dum2
      LeftHand_dum1 LeftHandThumb1
      RightShoulder RightArm
      RightArm RightForeArm
      RightForeArm RightHand
      RightHand RightHand_dum1 RightHand_dum2
      RightHand_dum1 RightHandThumb1
      LeftUpLeg LeftLeg
      LeftLeg LeftFoot
      LeftFoot LeftToeBase
      RightUpLeg RightLeg
      RightLeg RightFoot
      RightFoot RightToeBase
   end

# File created by Blade
# Date/Time:  Fri Jan 16 17:53:05 2015
# Frame Rate: 120.000 fps
#------------------------------------------------------
:FULLY-SPECIFIED
:DEGREES
1520
root -3.258867 35.506070 -11.030642 -7.309224 17.508373 -11.210129
Spine 1.046298 -19.284114 10.946139
Head 3.251563 -4.499640 -4.771574
LeftShoulder -22.588097 15.276286 -10.182269
LeftArm 27.835410 -18.216270 -66.057616
LeftForeArm 3.297057 -0.000000 123.067639
LeftHand 2.429217 0.000000 14.069591
LeftHandThumb1 -26.253704 0.000000 33.147579
RightShoulder -7.592896 -9.531956 0.734226
RightArm -3.838436 -27.882069 77.173304
RightForeArm -17.077259 -0.000000 15.775278
RightHand 1.173628 -0.000000 16.297741
RightHandThumb1 -24.326973 -0.000000 -32.862282
LeftUpLeg 12.539827 -9.002541 -0.699558
LeftLeg -6.296701 -0.000000 0.000000
LeftFoot -13.930503 26.335592 -2.312527
LeftToeBase 19.805305 -0.000000 -0.000000
RightUpLeg -16.346340 33.636033 3.942749
RightLeg 94.619821 -0.000000 -0.000000
RightFoot 13.631269 -24.302133 -10.149836
RightToeBase 3.995685 -0.000000 -0.000000
1521
root -3.248331 35.503321 -11.043771 -7.283084 17.458513 -11.167858
Spine 1.077326 -19.176089 10.893694
Head 3.235746 -4.558404 -4.723336
LeftShoulder -22.480242 15.234459 -10.053558
LeftArm 27.828605 -18.077905 -66.098910
LeftForeArm 3.308238 -0.000000 123.032759
LeftHand 2.361518 -0.000000 14.042346
LeftHandThumb1 -26.253704 0.000000 33.147579
RightShoulder -7.571282 -9.438688 0.693923
RightArm -3.780582 -26.859130 77.063354
RightForeArm -16.658993 -0.000000 15.832151
RightHand 1.074771 -0.000000 15.402802
RightHandThumb1 -24.326973 -0.000000 -32.862282
LeftUpLeg 12.508652 -9.025478 -0.762490
LeftLeg -6.274140 -0.000000 0.000000
LeftFoot -13.931505 26.388649 -2.332612
LeftToeBase 19.818651 -0.000000 -0.000000
RightUpLeg -16.080890 33.299442 4.098697
RightLeg 92.596684 -0.000000 -0.000000
RightFoot 12.341876 -24.213140 -9.368296
RightToeBase 2.728673 -0.000000 -0.000000
1522
root -3.238552 35.500342 -11.057950 -7.241038 17.378689 -11.130384
Spine 1.093323 -19.041805 10.856523
Head 3.212541 -4.597995 -4.681029
LeftShoulder -22.399210 15.196838 -9.943969
LeftArm 27.831754 -17.928401 -66.111633
LeftForeArm 3.327624 0.000000 122.933752
LeftHand 2.573220 -0.000000 14.077706
LeftHandThumb1 -26.253704 0.000000 33.147579
RightShoulder -7.531539 -9.301959 0.634362
RightArm -3.755999 -25.965638 76.988566
RightForeArm -16.247503 0.000000 15.884132
RightHand 0.863743 0.000000 14.612911
RightHandThumb1 -24.326973 -0.000000 -32.862282
LeftUpLeg 12.460479 -9.037604 -0.817546
LeftLeg -6.247815 -0.000000 0.000000
LeftFoot -13.944355 26.461310 -2.358017
LeftToeBase 19.835347 -0.000000 -0.000000
RightUpLeg -15.857973 32.959918 4.232060
RightLeg 90.589776 -0.000000 -0.000000
RightFoot 10.626090 -24.131644 -8.140270
RightToeBase 2.172244 -0.000000 -0.000000
1523
root -3.225949 35.497030 -11.072966 -7.191469 17.250385 -11.076941
Spine 1.109011 -18.844673 10.825920
Head 3.194962 -4.632128 -4.662121
LeftShoulder -22.292688 15.165433 -9.836371
LeftArm 27.829625 -17.809059 -66.124433
LeftForeArm 3.422291 -0.000000 122.888809
LeftHand 2.466738 -0.000000 14.060191
LeftHandThumb1 -26.253704 0.000000 33.147579
RightShoulder -7.480280 -9.108912 0.568425
RightArm -3.810576 -25.439262 76.900054
RightForeArm -15.674169 -0.000000 16.005246
RightHand 0.779772 0.000000 13.556934
RightHandThumb1 -24.326973 -0.000000 -32.862282
LeftUpLeg 12.426166 -9.005887 -0.893557
LeftLeg -6.236445 -0.000000 0.000000
LeftFoot -13.929494 26.533991 -2.452069
LeftToeBase 19.689567 -0.000000 -0.000000
RightUpLeg -15.629404 32.648363 4.336229
RightLeg 88.572243 -0.000000 -0.000000
RightFoot 9.298751 -24.013480 -7.414180
RightToeBase 1.136198 -0.000000 -0.000000
